<?xml version="1.0" encoding="iso-8859-1"?>
<!-- Generator: Adobe Illustrator 21.0.0, SVG Export Plug-In . SVG Version: 6.00 Build 0)  -->
<svg xmlns="http://www.w3.org/2000/svg" xmlns:xlink="http://www.w3.org/1999/xlink" version="1.1" id="Capa_1" x="0px" y="0px" viewBox="0 0 512 512" style="enable-background:new 0 0 512 512;" xml:space="preserve" width="512" height="512">
<g>
	<polygon style="fill:#78777F;" points="72.81,295.019 72.81,325.019 30,325.019 30,359.139 0,359.139 0,260.889 30,260.889    30,295.019  "/>
	<polygon style="fill:#57555C;" points="0,309.909 72.81,309.909 72.81,325.019 30,325.019 30,359.139 0,359.139  "/>
	<rect x="192.58" y="130.712" style="fill:#57555C;" width="102.173" height="85.398"/>
	<rect x="57.81" y="240.899" style="fill:#AEADB3;" width="104.93" height="138.98"/>
	<rect x="418.27" y="309.224" style="fill:#8B8992;" width="93.73" height="105.959"/>
	<rect x="482" y="283.949" style="fill:#78777F;" width="30" height="155.34"/>
	<rect x="150" y="72.712" style="fill:#AEADB3;" width="187.333" height="83.667"/>
	<rect x="57.81" y="309.909" style="fill:#8B8992;" width="104.93" height="69.97"/>
	<rect x="482" y="309.909" style="fill:#57555C;" width="30" height="129.38"/>
	<polygon style="fill:#FFAA20;" points="448.27,285.199 448.27,433.919 181.68,433.919 132.74,379.889 132.74,186.109    382.68,186.109 382.68,237.979 410.17,237.979  "/>
	<polygon style="fill:#FF8900;" points="132.74,309.909 448.27,309.909 448.27,433.919 181.68,433.919 132.74,379.889  "/>
	<rect x="192.58" y="186.11" style="fill:#FFC473;" width="30" height="247.602"/>
	<rect x="192.58" y="309.911" style="fill:#FFAA20;" width="30" height="123.801"/>
</g>















</svg>
